<?xml version="1.0" encoding="UTF-8" standalone="no"?>
<!-- Created with Inkscape (http://www.inkscape.org/) -->
<svg xmlns:dc="http://purl.org/dc/elements/1.1/" xmlns:cc="http://creativecommons.org/ns#" xmlns:rdf="http://www.w3.org/1999/02/22-rdf-syntax-ns#" xmlns:svg="http://www.w3.org/2000/svg" xmlns="http://www.w3.org/2000/svg" xmlns:sodipodi="http://sodipodi.sourceforge.net/DTD/sodipodi-0.dtd" xmlns:inkscape="http://www.inkscape.org/namespaces/inkscape" width="63.57658" height="24.74226" viewBox="0 0 16.821303 6.5463898" version="1.1" id="svg907" inkscape:version="0.92.0 r15299" sodipodi:docname="seamless.svg">
  <defs id="defs901"/>
  <sodipodi:namedview id="base" pagecolor="#ffffff" bordercolor="#666666" borderopacity="1.0" inkscape:pageopacity="0.0" inkscape:pageshadow="2" inkscape:zoom="14.334436" inkscape:cx="31.28829" inkscape:cy="11.871129" inkscape:document-units="mm" inkscape:current-layer="layer1" showgrid="false" fit-margin-top="0" fit-margin-left="0" fit-margin-right="0" fit-margin-bottom="0" units="px" inkscape:window-width="1280" inkscape:window-height="744" inkscape:window-x="-4" inkscape:window-y="-4" inkscape:window-maximized="1"/>
  <metadata id="metadata904">
    <rdf:RDF>
      <cc:Work rdf:about="">
        <dc:format>image/svg+xml</dc:format>
        <dc:type rdf:resource="http://purl.org/dc/dcmitype/StillImage"/>
        <dc:title/>
      </cc:Work>
    </rdf:RDF>
  </metadata>
  <g inkscape:label="Layer 1" inkscape:groupmode="layer" id="layer1" transform="translate(154.17717,-41.86237)">
    <g id="g928" transform="translate(0.13229174,-0.1322922)">
      <polygon transform="matrix(0.26458333,0,0,0.26458333,-154.17717,42.05876)" style="fill:#ffffff;fill-rule:evenodd;stroke:none;stroke-width:1" id="Fill-1" points="2.8502732,5.2768696 2.8502732,19.993391 59.725989,19.993391 59.725989,5.2768696 "/>
      <path style="fill:#c90117;fill-rule:evenodd;stroke:none;stroke-width:0.26458332" inkscape:connector-curvature="0" d="m -150.38281,45.029733 c -0.21597,0 -0.37087,0.14752 -0.41269,0.37207 h 0.74803 c -0.01,-0.23734 -0.15472,-0.37207 -0.33534,-0.37207" id="Fill-3"/>
      <path style="fill:#c90117;fill-rule:evenodd;stroke:none;stroke-width:0.26458332" inkscape:connector-curvature="0" d="m -149.08329,45.911653 c 0,0.12515 0.0904,0.23403 0.24836,0.23403 0.2353,0 0.39668,-0.24683 0.39668,-0.45868 v -0.0577 h -0.0712 c -0.15786,0 -0.57388,0.0226 -0.57388,0.28235" id="Fill-4"/>
      <path style="fill:#c90117;fill-rule:evenodd;stroke:none;stroke-width:0.26458332" inkscape:connector-curvature="0" d="m -142.87894,45.029732 c -0.21597,0 -0.37087,0.147523 -0.41251,0.372073 h 0.74785 c -0.01,-0.237342 -0.1549,-0.372073 -0.33534,-0.372073" id="Fill-5" mask="none"/>
      <path style="fill:#c90117;fill-rule:evenodd;stroke:none;stroke-width:0.26458332" inkscape:connector-curvature="0" d="m -138.66152,42.126954 c -0.32072,0 -3.09834,0.32431 -7.23738,0.32431 -4.13923,0 -6.91685,-0.32431 -7.23711,-0.32431 -0.52067,0 -1.04116,0.32431 -1.04116,0.876208 v 4.529206 c 0,0.552082 0.52049,0.876392 1.04116,0.876392 0.32026,0 3.09788,-0.32431 7.23711,-0.32431 4.13904,0 6.91666,0.32431 7.23738,0.32431 0.52021,0 1.04107,-0.32431 1.04107,-0.876392 v -4.529206 c 0,-0.551898 -0.52086,-0.876208 -1.04107,-0.876208 z m -13.42406,4.310638 c -0.29971,0 -0.66096,-0.128289 -0.66096,-0.394621 v -0.185714 h 0.33201 v 0.0993 c 0,0.118717 0.16128,0.176327 0.33552,0.176327 0.16766,0 0.29018,-0.06111 0.29018,-0.176327 0,-0.141265 -0.1611,-0.179825 -0.3804,-0.259798 -0.24197,-0.0866 -0.5192,-0.195745 -0.5192,-0.503306 0,-0.34336 0.34172,-0.465299 0.63856,-0.465299 0.23855,0 0.59008,0.09276 0.59008,0.336642 v 0.205317 h -0.33885 v -0.09635 c 0,-0.08642 -0.10318,-0.140896 -0.24817,-0.140896 -0.13538,0 -0.2516,0.05117 -0.2516,0.157185 0,0.140988 0.16767,0.195746 0.35162,0.253264 0.25151,0.08016 0.54798,0.182953 0.54798,0.500085 0,0.327163 -0.30943,0.494196 -0.68677,0.494196 z m 2.42813,-0.801757 h -1.14777 c 0.0258,0.310966 0.25159,0.474501 0.50633,0.474501 0.27057,0 0.48034,-0.176051 0.48034,-0.176051 l 0.15156,0.275627 c 0,0 -0.24844,0.22768 -0.65762,0.22768 -0.53853,0 -0.88035,-0.387995 -0.88035,-0.85633 0,-0.503307 0.34487,-0.853109 0.83177,-0.853109 0.47071,0 0.72527,0.34336 0.72527,0.773044 0,0.04482 -0.01,0.134638 -0.01,0.134638 z m 0.72572,0.801757 c -0.28055,0 -0.54482,-0.163536 -0.54482,-0.497141 0,-0.499994 0.6641,-0.548493 0.9317,-0.548493 h 0.10336 v -0.05761 c 0,-0.218109 -0.13547,-0.295045 -0.31276,-0.295045 -0.24863,0 -0.46442,0.157094 -0.46442,0.157094 l -0.14842,-0.269185 c 0,0 0.2515,-0.199059 0.64495,-0.199059 0.4386,0 0.67067,0.224551 0.67067,0.641626 v 0.66721 c 0,0.04785 0.0258,0.07031 0.0711,0.07031 h 0.15148 v 0.291732 h -0.37735 c -0.14842,0 -0.20634,-0.07684 -0.20634,-0.173106 V 46.2066 c 0,-0.05439 0.01,-0.08982 0.01,-0.08982 h -0.007 c 0,0 -0.13852,0.320813 -0.52225,0.320813 z m 3.37603,-1.356416 c -0.28361,0 -0.42879,0.285198 -0.42879,0.589998 v 0.436033 h 0.24197 v 0.291548 h -0.63209 v -0.974587 c 0,-0.182953 -0.0292,-0.342992 -0.23207,-0.342992 -0.29675,0 -0.43869,0.31069 -0.43869,0.60914 v 0.416891 h 0.24188 v 0.291548 h -0.87378 v -0.291548 h 0.24188 v -0.981305 c 0,-0.04473 -0.0258,-0.06746 -0.0711,-0.06746 h -0.18682 V 44.76671 h 0.41898 c 0.14204,0 0.21292,0.06414 0.21292,0.182954 v 0.07335 c 0,0.03856 -0.006,0.07712 -0.006,0.07712 h 0.006 c 0.0838,-0.173015 0.2936,-0.371981 0.56417,-0.371981 0.23549,0 0.40001,0.109146 0.46118,0.359281 h 0.006 c 0.0905,-0.192433 0.31285,-0.359281 0.57416,-0.359281 0.33857,0 0.52882,0.195653 0.52882,0.622208 v 0.756846 h 0.2416 v 0.291548 h -0.63208 v -0.974587 c 0,-0.192432 -0.0353,-0.342992 -0.23855,-0.342992 z m 1.72877,1.320984 c 0,0 -0.0678,0.0097 -0.145,0.0097 -0.25797,0 -0.49014,-0.08964 -0.49014,-0.519319 v -1.384389 h -0.25788 V 44.21638 h 0.64467 v 1.650264 c 0,0.144393 0.0324,0.224551 0.1709,0.224551 0.0454,0 0.0774,-0.0033 0.0774,-0.0033 z m 1.67362,-0.766325 h -1.14813 c 0.0259,0.310966 0.25187,0.474501 0.50633,0.474501 0.27094,0 0.48061,-0.176051 0.48061,-0.176051 l 0.15129,0.275627 c 0,0 -0.24817,0.22768 -0.65734,0.22768 -0.53872,0 -0.88091,-0.387995 -0.88091,-0.85633 0,-0.503307 0.34552,-0.853109 0.83224,-0.853109 0.47071,0 0.72572,0.34336 0.72572,0.773044 0,0.04482 -0.01,0.134638 -0.01,0.134638 z m 0.88359,0.801757 c -0.29962,0 -0.66105,-0.128289 -0.66105,-0.394621 v -0.185714 h 0.33247 v 0.0993 c 0,0.118717 0.16082,0.176327 0.33497,0.176327 0.16794,0 0.29045,-0.06111 0.29045,-0.176327 0,-0.141265 -0.16146,-0.179825 -0.38095,-0.259798 -0.24151,-0.0866 -0.51883,-0.195746 -0.51883,-0.503307 0,-0.34336 0.34191,-0.465298 0.63857,-0.465298 0.23836,0 0.58979,0.09276 0.58979,0.336642 v 0.205317 h -0.33848 v -0.09635 c 0,-0.08642 -0.10326,-0.140897 -0.24817,-0.140897 -0.13565,0 -0.25131,0.05117 -0.25131,0.157186 0,0.140988 0.16748,0.195745 0.35097,0.253264 0.25178,0.08016 0.54834,0.182953 0.54834,0.500085 0,0.327163 -0.30915,0.494196 -0.68677,0.494196 z m 1.53196,0 c -0.2999,0 -0.66123,-0.128289 -0.66123,-0.394621 v -0.185714 h 0.33246 v 0.0993 c 0,0.118717 0.16101,0.176327 0.33497,0.176327 0.16804,0 0.29027,-0.06111 0.29027,-0.176327 0,-0.141265 -0.16137,-0.179825 -0.3804,-0.259798 -0.24178,-0.0866 -0.51929,-0.195746 -0.51929,-0.503307 0,-0.34336 0.34172,-0.465298 0.63847,-0.465298 0.23892,0 0.59027,0.09276 0.59027,0.336642 v 0.205317 h -0.33876 v -0.09635 c 0,-0.08642 -0.10299,-0.140897 -0.24808,-0.140897 -0.13547,0 -0.2515,0.05117 -0.2515,0.157186 0,0.140988 0.16739,0.195745 0.35125,0.253264 0.25168,0.08016 0.54825,0.182953 0.54825,0.500085 0,0.327163 -0.30971,0.494196 -0.68668,0.494196 z" id="Fill-7" mask="none"/>
    </g>
  </g>
</svg>